<svg xmlns="http://www.w3.org/2000/svg" viewBox="0 0 600 672" width="600" height="672">
  <defs>
    <radialGradient id="glow" cx="0.85" cy="0.04" r="0.75">
      <stop offset="0" stop-color="#2dd4bf" stop-opacity="0.13"/>
      <stop offset="1" stop-color="#2dd4bf" stop-opacity="0"/>
    </radialGradient>
    <linearGradient id="accent" x1="0" y1="0" x2="1" y2="0">
      <stop offset="0" stop-color="#34d399"/>
      <stop offset="0.5" stop-color="#2dd4bf"/>
      <stop offset="1" stop-color="#38bdf8"/>
    </linearGradient>
    <style>
      .label { font-family: 'Inter', -apple-system, 'Segoe UI', sans-serif; }
    </style>
  </defs>

  <!-- Background -->
  <rect width="600" height="672" rx="12" fill="#0D1117"/>
  <rect width="600" height="672" rx="12" fill="url(#glow)"/>
  <!-- gradient spine behind the flow -->
  <line x1="300" y1="88" x2="300" y2="576" stroke="url(#accent)" stroke-width="2" opacity="0.16"/>

  <!-- ── Stage 1: GitHub Actions ── y=24 -->
  <rect x="30" y="24" width="540" height="64" rx="8" fill="#161B22" stroke="#21262D" stroke-width="1"/>
  <circle cx="54" cy="56" r="6" fill="#1F6FEB"/>
  <text x="70" y="52" class="label" font-size="14" font-weight="600" fill="#E6EDF3">GitHub Actions</text>
  <text x="70" y="70" class="label" font-size="11" fill="#6E7681">Scheduled: weekdays 8 AM EST  ·  workflow_dispatch for manual runs</text>

  <!-- Arrow 1→2 -->
  <line x1="300" y1="90" x2="300" y2="109" stroke="#30363D" stroke-width="1.5"/>
  <polygon points="295,108 305,108 300,116" fill="#30363D"/>

  <!-- ── Stage 2: fetch.py ── y=116 -->
  <rect x="30" y="116" width="540" height="64" rx="8" fill="#161B22" stroke="#21262D" stroke-width="1"/>
  <circle cx="54" cy="148" r="6" fill="#7C3AED"/>
  <text x="70" y="144" class="label" font-size="14" font-weight="600" fill="#E6EDF3">fetch.py</text>
  <text x="70" y="162" class="label" font-size="11" fill="#6E7681">GraphQL: paginate AWAITING_RESPONSE quotes · filter by age in Python</text>

  <!-- Arrow 2→3 -->
  <line x1="300" y1="182" x2="300" y2="201" stroke="#30363D" stroke-width="1.5"/>
  <polygon points="295,200 305,200 300,208" fill="#30363D"/>

  <!-- ── Stage 3: tracker.py ── y=208 -->
  <rect x="30" y="208" width="540" height="64" rx="8" fill="#161B22" stroke="#21262D" stroke-width="1"/>
  <circle cx="54" cy="240" r="6" fill="#D97706"/>
  <text x="70" y="236" class="label" font-size="14" font-weight="600" fill="#E6EDF3">tracker.py</text>
  <text x="70" y="254" class="label" font-size="11" fill="#6E7681">Skip if max nudges reached or sent too recently · nudge log seeded from Sheet</text>

  <!-- Arrow 3→4 -->
  <line x1="300" y1="274" x2="300" y2="293" stroke="#30363D" stroke-width="1.5"/>
  <polygon points="295,292 305,292 300,300" fill="#30363D"/>

  <!-- ── Stage 4: signals.py ── y=300 -->
  <rect x="30" y="300" width="540" height="64" rx="8" fill="#161B22" stroke="#21262D" stroke-width="1"/>
  <circle cx="54" cy="332" r="6" fill="#0EA5E9"/>
  <text x="70" y="328" class="label" font-size="14" font-weight="600" fill="#E6EDF3">signals.py</text>
  <text x="70" y="346" class="label" font-size="11" fill="#6E7681">Classify into follow-up strategy using 2×2 matrix (viewed × value)</text>

  <!-- Arrow 4→5 -->
  <line x1="300" y1="366" x2="300" y2="385" stroke="#30363D" stroke-width="1.5"/>
  <polygon points="295,384 305,384 300,392" fill="#30363D"/>

  <!-- ── Stage 5: draft.py ── y=392  (AI + grounding gate) -->
  <rect x="30" y="392" width="540" height="64" rx="8" fill="#161B22" stroke="#21262D" stroke-width="1"/>
  <circle cx="54" cy="424" r="6" fill="#10B981"/>
  <text x="70" y="420" class="label" font-size="14" font-weight="600" fill="#E6EDF3">draft.py</text>
  <!-- grounding gate badge -->
  <rect x="156" y="408" width="112" height="18" rx="9" fill="#0B2014" stroke="#238636" stroke-width="1"/>
  <circle cx="168" cy="417" r="3" fill="#3FB950"/>
  <text x="178" y="421" class="label" font-size="10" font-weight="500" fill="#3FB950">grounding gate</text>
  <text x="70" y="438" class="label" font-size="11" fill="#6E7681">Claude or Gemini drafts the follow-up · gate validates output</text>

  <!-- Arrow 5→6 -->
  <line x1="300" y1="458" x2="300" y2="477" stroke="#30363D" stroke-width="1.5"/>
  <polygon points="295,476 305,476 300,484" fill="#30363D"/>

  <!-- ── Stage 6: write.py ── y=484 -->
  <rect x="30" y="484" width="540" height="64" rx="8" fill="#161B22" stroke="#21262D" stroke-width="1"/>
  <circle cx="54" cy="516" r="6" fill="#6366F1"/>
  <text x="70" y="512" class="label" font-size="14" font-weight="600" fill="#E6EDF3">write.py</text>
  <text x="70" y="530" class="label" font-size="11" fill="#6E7681">Append to Google Sheet → owner marks APPROVED / EDITED / REJECTED</text>

  <!-- Arrow 6→7 -->
  <line x1="300" y1="550" x2="300" y2="569" stroke="#30363D" stroke-width="1.5"/>
  <polygon points="295,568 305,568 300,576" fill="#30363D"/>

  <!-- ── Stage 7: deliver.py ── y=576  (crimson: final action) -->
  <rect x="30" y="576" width="540" height="64" rx="8" fill="#161B22" stroke="#8B1A1A" stroke-width="1"/>
  <circle cx="54" cy="608" r="6" fill="#C53030"/>
  <text x="70" y="604" class="label" font-size="14" font-weight="600" fill="#E6EDF3">deliver.py</text>
  <!-- ENABLE_DELIVERY badge -->
  <rect x="166" y="592" width="152" height="18" rx="9" fill="#1A0808" stroke="#8B1A1A" stroke-width="1"/>
  <circle cx="178" cy="601" r="3" fill="#C53030"/>
  <text x="188" y="605" class="label" font-size="10" font-weight="500" fill="#C53030">ENABLE_DELIVERY=true</text>
  <text x="70" y="622" class="label" font-size="11" fill="#6E7681">Send approved drafts via SendGrid · mark rows SENT in Sheet</text>

</svg>
